<svg xmlns="http://www.w3.org/2000/svg"  viewBox="0 0 48 48" width="48px" height="48px"><rect width="12.375" height="26.813" x="9.104" y="19.302" fill="#6c19ff" transform="rotate(45.001 15.292 32.708)"/><path fill="#3dd9eb" d="M34.553,20.739l-7.292-7.292l8.447-8.447c-4.839-1.984-10.606-1.014-14.536,2.916 c-5.222,5.222-5.222,13.69,0,18.912c5.222,5.222,13.69,5.222,18.912,0c3.93-3.93,4.9-9.696,2.916-14.536L34.553,20.739z"/><path fill="#00b3d7" d="M17.875,21.374c0.624,1.994,1.718,3.873,3.298,5.453c1.58,1.58,3.459,2.674,5.453,3.298l2.521-2.521 l-8.75-8.75L17.875,21.374z"/></svg>